<?xml version="1.0" encoding="UTF-8"?>
<svg id="Layer_1" xmlns="http://www.w3.org/2000/svg" viewBox="0 0 500 500">
  <defs>
    <style>.cls-1{fill:#fff;}.cls-2{fill:#717073;}.cls-3{fill:#004b8d;}.cls-4{fill:#6c207e;}.cls-5{fill:#231f20;}</style>
  </defs>
  <path class="cls-2" d="m12.42,285.72c.24.88.4,1.96.47,3.25.79-.42,1.69-.87,2.68-1.35.99-.48,2.06-.9,3.19-1.27,1.14-.37,2.33-.68,3.57-.93,1.24-.25,2.5-.38,3.77-.38,2.17,0,4.08.34,5.73,1.03,1.65.69,3.09,1.84,4.3,3.45,5.29-2.99,10.31-4.48,15.07-4.48,2.01,0,3.76.34,5.26,1.01,1.49.67,2.72,1.6,3.69,2.78.96,1.17,1.68,2.57,2.16,4.16.48,1.6.71,3.31.71,5.14v30.42h-6.27v-29.82c0-1.46-.19-2.72-.58-3.79-.38-1.07-.92-1.97-1.6-2.68-.69-.72-1.49-1.24-2.42-1.59-.93-.35-1.92-.52-2.98-.52-3.83,0-7.57.98-11.22,2.93.34,1.56.52,3.28.52,5.16v30.3h-6.27v-29.74c0-2.96-.65-5.14-1.96-6.54-1.31-1.4-3.2-2.1-5.69-2.1-2.01,0-3.99.31-5.95.93-1.96.62-3.78,1.37-5.47,2.24v35.22h-6.26v-37.83c-.03-1.83-.13-3.49-.32-5h5.87Z" />
  <path class="cls-2" d="m72.44,290.8c.98-.9,2.12-1.72,3.43-2.46,1.31-.74,2.7-1.37,4.17-1.91,1.47-.53,2.99-.93,4.56-1.21,1.57-.28,3.14-.41,4.7-.41,4.39,0,7.88,1.09,10.47,3.29,2.59,2.2,3.89,5.25,3.89,9.16v19.08c0,1.56.05,2.84.16,3.85.1,1.01.3,1.8.57,2.38.27.58.65.99,1.11,1.21.46.22,1.05.34,1.77.34.9,0,1.81-.09,2.73-.28l.99,2.9c-.71.69-1.73,1.24-3.04,1.66-1.31.42-2.72.64-4.22.64-1.66,0-3-.59-4.02-1.76-1.02-1.18-1.67-2.86-1.96-5.06-2.25,2.09-4.7,3.75-7.36,4.98-2.66,1.23-5.51,1.84-8.55,1.84-1.67,0-3.22-.24-4.66-.73-1.44-.49-2.69-1.2-3.75-2.12-1.06-.93-1.88-2.06-2.48-3.41-.6-1.35-.89-2.88-.89-4.6,0-2.3.45-4.3,1.33-5.99.88-1.69,2.06-3.13,3.51-4.32,1.45-1.19,3.13-2.16,5.02-2.9,1.89-.74,3.85-1.32,5.87-1.75,2.02-.42,4.04-.71,6.05-.85,2.01-.14,3.86-.22,5.55-.22v-4.4c0-2.8-.73-4.84-2.18-6.11-1.45-1.27-3.49-1.9-6.11-1.9-1.48,0-2.86.17-4.14.51-1.28.34-2.48.78-3.59,1.31-1.11.53-2.13,1.11-3.05,1.75-.93.63-1.76,1.24-2.5,1.82l-3.37-4.32Zm24.95,15.07c-3.6.08-6.69.4-9.28.98-2.59.57-4.72,1.34-6.39,2.32-1.67.98-2.9,2.13-3.69,3.45-.79,1.32-1.19,2.78-1.19,4.36,0,2.25.63,3.9,1.9,4.96,1.27,1.06,3.03,1.59,5.28,1.59,1.21,0,2.42-.13,3.63-.4,1.2-.26,2.37-.62,3.51-1.07,1.13-.45,2.23-.99,3.27-1.61,1.04-.62,2.03-1.29,2.95-2.01v-12.57Z" />
  <path class="cls-2" d="m122.16,285.72c.19.69.33,1.61.42,2.76.09,1.15.14,2.65.14,4.5,2.04-2.43,4.42-4.36,7.16-5.79,2.74-1.43,5.59-2.14,8.55-2.14.34,0,.71.03,1.09.08.38.05.67.11.85.16l-1.35,6.54c-.79-.21-1.8-.32-3.01-.32-3.52,0-6.44.8-8.77,2.38-2.32,1.59-3.82,3.15-4.48,4.68v29.98h-6.26v-36.92c-.06-3.41-.13-5.38-.24-5.91h5.91Z" />
  <path class="cls-2" d="m152.61,301.67l17.81-16.18h7.61l-17.09,15.83,17.89,27.01h-7.42l-14.59-23.48-4.21,3.41v20.07h-6.27v-62.19h6.27v35.54Z" />
  <path class="cls-2" d="m215.4,320.67c-1.88,2.49-4.16,4.5-6.84,6.05-2.68,1.55-6.19,2.32-10.53,2.32-5.61,0-10.11-1.99-13.52-5.97-3.41-3.98-5.12-9.59-5.12-16.84,0-6.32,1.55-11.47,4.64-15.44,3.09-3.98,7.63-5.97,13.6-5.97,5.05,0,9.04,1.39,11.98,4.16,2.93,2.78,4.59,6.65,4.96,11.62.16,1.88.2,3.85.12,5.91h-28.72c0,4.74,1.09,8.8,3.25,12.2,2.17,3.4,5.13,5.1,8.88,5.1,2.72,0,5.1-.57,7.14-1.71,2.04-1.14,3.91-2.83,5.63-5.08l4.52,3.65Zm-17.85-30.94c-3.72,0-6.54,1.27-8.45,3.83-1.9,2.55-2.92,5.44-3.05,8.67h22.25c-.11-3.41-.95-6.35-2.54-8.81-1.59-2.46-4.32-3.69-8.21-3.69Z" />
  <path class="cls-2" d="m229.3,285.48c.24.87.39,1.96.48,3.25.79-.42,1.69-.87,2.68-1.34.99-.48,2.06-.9,3.19-1.27,1.14-.37,2.33-.68,3.57-.93,1.24-.25,2.5-.38,3.77-.38,2.17,0,4.08.34,5.73,1.03,1.65.69,3.08,1.84,4.3,3.45,5.26-2.99,10.28-4.48,15.04-4.48,2.01,0,3.76.33,5.26,1.01,1.49.67,2.72,1.6,3.69,2.78.96,1.18,1.68,2.56,2.16,4.16.48,1.6.71,3.31.71,5.14v30.42h-6.27v-29.83c0-1.45-.19-2.71-.57-3.79-.38-1.07-.92-1.96-1.61-2.68-.69-.71-1.49-1.24-2.42-1.58-.93-.34-1.91-.52-2.97-.52-3.83,0-7.57.98-11.19,2.93.34,1.56.52,3.28.52,5.16v30.3h-6.27v-29.75c0-2.96-.65-5.14-1.96-6.55-1.31-1.4-3.21-2.1-5.69-2.1-2.01,0-3.99.31-5.95.93-1.96.62-3.78,1.37-5.47,2.24v35.22h-6.27v-37.84c-.03-1.82-.13-3.49-.32-5h5.87Z" />
  <path class="cls-2" d="m318.75,285.48h6.27v42.83h-6.27v-42.83Z" />
  <path class="cls-2" d="m341.06,285.48c.23.87.39,1.96.47,3.25.79-.42,1.69-.87,2.68-1.34.99-.48,2.05-.9,3.19-1.27,1.13-.37,2.33-.68,3.57-.93,1.24-.25,2.5-.38,3.77-.38,2.17,0,4.08.34,5.73,1.03,1.65.69,3.09,1.84,4.3,3.45,5.29-2.99,10.31-4.48,15.07-4.48,2.01,0,3.76.33,5.25,1.01,1.49.67,2.72,1.6,3.69,2.78.97,1.18,1.69,2.56,2.16,4.16.47,1.6.71,3.31.71,5.14v30.42h-6.27v-29.83c0-1.45-.19-2.71-.57-3.79-.39-1.07-.92-1.96-1.61-2.68-.69-.71-1.49-1.24-2.42-1.58-.92-.34-1.92-.52-2.97-.52-3.83,0-7.58.98-11.23,2.93.34,1.56.52,3.28.52,5.16v30.3h-6.27v-29.75c0-2.96-.65-5.14-1.96-6.55-1.31-1.4-3.21-2.1-5.69-2.1-2.01,0-3.99.31-5.95.93-1.96.62-3.78,1.37-5.47,2.24v35.22h-6.27v-37.84c-.03-1.82-.13-3.49-.32-5h5.87Z" />
  <path class="cls-2" d="m400.37,291.03c.98-.9,2.12-1.72,3.43-2.46,1.31-.74,2.69-1.37,4.16-1.91,1.47-.53,2.99-.93,4.56-1.21,1.57-.28,3.14-.42,4.7-.42,4.39,0,7.88,1.1,10.47,3.29,2.59,2.19,3.89,5.25,3.89,9.16v19.08c0,1.56.05,2.84.16,3.85.11,1.01.3,1.8.58,2.38.27.58.64.98,1.1,1.21.47.22,1.05.34,1.77.34.9,0,1.81-.09,2.74-.28l.99,2.9c-.71.69-1.72,1.24-3.03,1.67-1.31.42-2.72.63-4.22.63-1.67,0-3.01-.59-4.03-1.77-1.02-1.18-1.68-2.86-1.97-5.06-2.25,2.09-4.7,3.75-7.36,4.98-2.66,1.23-5.51,1.84-8.55,1.84-1.67,0-3.22-.25-4.66-.74-1.44-.49-2.69-1.2-3.75-2.12-1.06-.93-1.88-2.06-2.48-3.41-.6-1.35-.89-2.88-.89-4.6,0-2.3.44-4.29,1.33-5.99.88-1.69,2.06-3.13,3.51-4.32,1.45-1.19,3.12-2.15,5.02-2.89,1.89-.74,3.85-1.32,5.87-1.75,2.02-.42,4.04-.71,6.05-.85,2.01-.15,3.86-.22,5.55-.22v-4.4c0-2.81-.72-4.84-2.18-6.11-1.45-1.27-3.49-1.9-6.11-1.9-1.48,0-2.86.17-4.15.52-1.28.34-2.48.78-3.59,1.31-1.11.53-2.13,1.11-3.06,1.75-.93.63-1.76,1.24-2.5,1.82l-3.37-4.32Zm24.94,15.07c-3.59.08-6.69.4-9.28.97-2.59.57-4.72,1.34-6.38,2.32-1.67.98-2.9,2.13-3.69,3.45-.79,1.32-1.19,2.77-1.19,4.36,0,2.25.64,3.9,1.91,4.96,1.27,1.06,3.03,1.59,5.28,1.59,1.21,0,2.42-.13,3.63-.4,1.2-.26,2.37-.62,3.51-1.07,1.14-.45,2.23-.98,3.27-1.61,1.04-.62,2.03-1.29,2.95-2v-12.57Z" />
  <path class="cls-2" d="m450.68,333.2c0,4.26-1.23,7.5-3.69,9.74-2.46,2.24-5.75,3.35-9.88,3.35-.48,0-1.01-.01-1.61-.04-.6-.03-.98-.05-1.17-.08l.51-5.56c.24.05.52.09.85.1.33.01.63.02.89.02,1.95,0,3.75-.62,5.37-1.86,1.63-1.24,2.44-3.49,2.44-6.74v-46.64h6.26v47.71Z" />
  <path class="cls-2" d="m493.45,320.9c-1.88,2.49-4.16,4.5-6.84,6.05-2.68,1.55-6.19,2.32-10.53,2.32-5.61,0-10.11-1.99-13.52-5.97-3.41-3.98-5.12-9.59-5.12-16.83,0-6.32,1.55-11.47,4.64-15.45,3.09-3.98,7.63-5.97,13.6-5.97,5.05,0,9.04,1.39,11.98,4.16,2.94,2.78,4.59,6.65,4.96,11.62.16,1.87.2,3.84.12,5.91h-28.71c0,4.73,1.08,8.8,3.25,12.2,2.17,3.39,5.13,5.09,8.89,5.09,2.72,0,5.1-.57,7.14-1.7,2.03-1.14,3.91-2.83,5.63-5.08l4.52,3.65Zm-17.85-30.93c-3.72,0-6.55,1.27-8.45,3.83-1.9,2.55-2.92,5.44-3.05,8.66h22.25c-.1-3.41-.95-6.35-2.54-8.8-1.59-2.46-4.32-3.69-8.21-3.69Z" />
  <path class="cls-2" d="m317.47,275.39c0-1.01.37-1.95,1.1-2.8.73-.86,1.7-1.29,2.91-1.29s2.13.43,2.84,1.29c.72.86,1.08,1.79,1.08,2.8,0,1.13-.39,2.08-1.18,2.87s-1.7,1.18-2.74,1.18-2.01-.39-2.81-1.18c-.8-.79-1.2-1.74-1.2-2.87Z" />
  <path class="cls-2" d="m443.08,275.46c0-1.01.37-1.95,1.1-2.81.73-.86,1.7-1.29,2.91-1.29s2.13.43,2.85,1.29c.72.86,1.08,1.79,1.08,2.81,0,1.12-.39,2.08-1.18,2.87-.79.79-1.7,1.18-2.74,1.18s-2-.4-2.8-1.18c-.81-.79-1.21-1.75-1.21-2.87Z" />
  <path class="cls-4" d="m305.87,310.55c0,1.53-.86,2.77-1.92,2.77h-8.53c-1.06,0-1.92-1.24-1.92-2.77v-6.78c0-1.53.86-2.76,1.92-2.76h8.53c1.06,0,1.92,1.24,1.92,2.76v6.78Z" />
  <path class="cls-4" d="m327.06,172.69c.15,41.36-33.24,75.01-74.6,75.17-41.36.16-75.01-33.25-75.16-74.6-.15-41.35,33.24-75.01,74.6-75.16,41.35-.16,75,33.24,75.16,74.6Z" />
  <path class="cls-1" d="m221.33,204.67c0,2.79-1.95,5.06-4.35,5.06h-11.7c-2.41,0-4.35-2.26-4.35-5.06v-53.08c0-2.79,1.94-5.06,4.35-5.06h11.7c2.4,0,4.35,2.27,4.35,5.06v53.08Z" />
  <path class="cls-1" d="m247.07,204.67c0,2.79-1.96,5.06-4.35,5.06h-11.7c-2.4,0-4.35-2.26-4.35-5.06v-53.08c0-2.79,1.95-5.06,4.35-5.06h11.7c2.4,0,4.35,2.27,4.35,5.06v53.08Z" />
  <path class="cls-1" d="m272.96,204.66c0,2.79-1.95,5.06-4.35,5.06h-11.7c-2.39,0-4.34-2.26-4.34-5.06v-53.09c0-2.79,1.95-5.06,4.34-5.06h11.7c2.4,0,4.35,2.27,4.35,5.06v53.09Z" />
  <path class="cls-1" d="m298.87,204.66c0,2.79-1.95,5.06-4.36,5.06h-11.69c-2.41,0-4.35-2.26-4.35-5.06v-53.09c0-2.79,1.95-5.06,4.35-5.06h11.69c2.4,0,4.36,2.27,4.36,5.06v53.09Z" />
  <path class="cls-1" d="m298.85,128.34c0-2.23-2.29-5.45-5.79-5.73h-8.75c-3.45.29-5.71,3.32-5.84,5.8v8.03c.09,3.06,2.91,5.52,5.69,5.8h8.8c2.73-.16,5.63-2.34,5.91-5.81l-.02-8.1Z" />
  <path class="cls-5" d="m114.16,380.28c-.15.28-.46.49-.89.61-.44.13-.82.22-1.15.27-1.03.18-2.09.35-3.18.49-1.1.14-2.09.35-2.99.63-.9.28-1.64.69-2.22,1.21-.58.53-.87,1.28-.87,2.26,0,.61.12,1.16.37,1.64.24.49.57.89.98,1.24.41.35.89.62,1.43.8.54.18,1.09.26,1.66.26.93,0,1.82-.14,2.67-.42.85-.28,1.59-.69,2.22-1.23.62-.54,1.12-1.19,1.5-1.97.37-.77.55-1.65.55-2.63v-3.16h-.08Zm-12.15-5.94c.41-.85.97-1.54,1.67-2.09.71-.53,1.53-.94,2.49-1.19.95-.26,2.01-.39,3.17-.39.87,0,1.74.09,2.61.26.88.16,1.66.48,2.36.94.7.46,1.26,1.11,1.7,1.95.43.84.66,1.92.66,3.25v10.58c0,.98.47,1.46,1.42,1.46.29,0,.54-.05.77-.15v2.04c-.28.06-.53.09-.75.12-.23.03-.49.04-.83.04-.61,0-1.11-.08-1.49-.25-.37-.17-.65-.4-.86-.71-.21-.31-.34-.68-.41-1.1-.07-.42-.09-.89-.09-1.41h-.08c-.44.65-.88,1.22-1.33,1.72-.45.5-.95.92-1.5,1.25-.56.34-1.18.6-1.89.78-.71.17-1.55.27-2.53.27-.93,0-1.8-.1-2.6-.33-.81-.22-1.52-.57-2.13-1.04-.6-.47-1.07-1.08-1.43-1.81-.35-.73-.52-1.6-.52-2.61,0-1.38.31-2.46.92-3.26.61-.78,1.44-1.38,2.45-1.79,1.01-.41,2.16-.7,3.43-.87,1.27-.17,2.56-.33,3.87-.49.52-.05.97-.11,1.36-.19.38-.08.71-.21.97-.4.25-.19.45-.46.59-.79.14-.34.21-.77.21-1.31,0-.83-.13-1.5-.4-2.03-.27-.53-.64-.94-1.11-1.25-.48-.32-1.03-.53-1.67-.65-.62-.12-1.3-.17-2.02-.17-1.54,0-2.8.37-3.78,1.1-.97.73-1.5,1.91-1.54,3.53h-2.43c.08-1.16.32-2.16.74-3.01" />
  <path class="cls-5" d="m281.72,373.91c-.9-.85-2.16-1.27-3.77-1.27-1.16,0-2.19.24-3.06.74-.87.48-1.6,1.12-2.18,1.93-.58.79-1.02,1.7-1.31,2.72-.29,1.01-.44,2.05-.44,3.1s.15,2.09.44,3.1c.29,1.02.73,1.92,1.31,2.72.57.8,1.31,1.45,2.18,1.93.87.49,1.89.73,3.06.73.74,0,1.45-.14,2.11-.43.67-.28,1.27-.67,1.78-1.17.52-.5.94-1.1,1.27-1.79.33-.69.55-1.46.62-2.28h2.43c-.33,2.43-1.23,4.31-2.67,5.65-1.44,1.35-3.29,2.02-5.54,2.02-1.53,0-2.87-.27-4.04-.83-1.17-.55-2.15-1.3-2.95-2.26-.8-.95-1.4-2.06-1.81-3.34-.41-1.28-.62-2.63-.62-4.07s.21-2.8.62-4.07c.42-1.27,1.01-2.39,1.81-3.34.8-.95,1.79-1.71,2.95-2.27,1.16-.57,2.51-.86,4.04-.86,2.13,0,3.93.58,5.42,1.7,1.48,1.13,2.35,2.84,2.63,5.13h-2.43c-.34-1.49-.95-2.66-1.85-3.51" />
  <path class="cls-5" d="m295.59,373.38c-.87.48-1.6,1.12-2.18,1.92-.58.8-1.02,1.7-1.32,2.72-.29,1.02-.44,2.05-.44,3.11s.15,2.09.44,3.1c.29,1.02.74,1.92,1.32,2.72.57.8,1.31,1.45,2.18,1.93.87.49,1.89.74,3.05.74s2.17-.24,3.05-.74c.87-.48,1.6-1.13,2.18-1.93.57-.79,1.01-1.7,1.32-2.72.29-1.01.44-2.05.44-3.1s-.15-2.09-.44-3.11c-.31-1.02-.74-1.92-1.32-2.72-.58-.8-1.31-1.44-2.18-1.92-.88-.5-1.89-.74-3.05-.74s-2.17.24-3.05.74m7.08-1.94c1.18.56,2.15,1.33,2.95,2.28.79.95,1.4,2.06,1.8,3.34.41,1.27.62,2.63.62,4.07s-.21,2.79-.62,4.07c-.4,1.27-1.01,2.38-1.8,3.34-.8.95-1.78,1.71-2.95,2.26-1.17.55-2.52.83-4.04.83s-2.86-.28-4.02-.83c-1.18-.55-2.15-1.3-2.95-2.26-.8-.96-1.4-2.07-1.82-3.34-.41-1.28-.61-2.63-.61-4.07s.2-2.8.61-4.07c.41-1.27,1.01-2.39,1.82-3.34.8-.95,1.78-1.72,2.95-2.28,1.16-.57,2.51-.85,4.02-.85s2.86.29,4.04.85" />
  <path class="cls-5" d="m314.37,371.17v3.36h.12c.63-1.23,1.48-2.2,2.53-2.89,1.04-.69,2.37-1.05,3.98-1.05,1.31,0,2.51.33,3.56.97,1.07.64,1.79,1.61,2.14,2.93.6-1.32,1.47-2.3,2.63-2.93,1.15-.64,2.39-.97,3.7-.97,4.4,0,6.6,2.33,6.6,6.99v13.5h-2.43v-13.39c0-1.65-.35-2.9-1.05-3.76-.69-.86-1.91-1.29-3.66-1.29-1.06,0-1.93.19-2.63.59-.69.4-1.24.93-1.65,1.61-.41.66-.7,1.43-.87,2.29-.18.86-.25,1.75-.25,2.69v11.26h-2.44v-13.5c0-.67-.06-1.3-.21-1.91-.15-.61-.37-1.14-.69-1.58-.33-.45-.76-.81-1.3-1.06-.54-.26-1.2-.38-1.96-.38-1.03,0-1.92.18-2.68.55-.77.38-1.38.89-1.86,1.55-.48.66-.83,1.42-1.06,2.32-.23.89-.35,1.85-.35,2.91v11.11h-2.43v-19.91h2.24Z" />
  <path class="cls-5" d="m360.29,378.06c-.24-1.02-.63-1.92-1.15-2.72-.53-.8-1.21-1.45-2.03-1.95-.82-.51-1.81-.76-2.97-.76-1.33,0-2.45.23-3.35.7-.9.46-1.62,1.07-2.15,1.85-.55.78-.92,1.68-1.14,2.7-.22,1.03-.34,2.11-.34,3.24,0,1.02.13,2.05.37,3.06.24,1.02.65,1.92,1.2,2.72.55.8,1.28,1.44,2.16,1.95.88.5,1.98.74,3.26.74,1.16,0,2.15-.24,2.97-.74.82-.51,1.5-1.15,2.03-1.95.52-.8.91-1.7,1.15-2.72.25-1.01.36-2.04.36-3.06s-.12-2.05-.36-3.07m-13.33-6.89v3.78h.08c.56-1.39,1.48-2.46,2.76-3.22,1.27-.76,2.72-1.14,4.33-1.14,1.52,0,2.84.29,3.95.85,1.13.56,2.06,1.33,2.8,2.3.74.97,1.29,2.08,1.66,3.35.36,1.27.54,2.62.54,4.04s-.18,2.76-.54,4.02c-.36,1.28-.92,2.41-1.66,3.36-.74.97-1.67,1.73-2.8,2.28-1.12.55-2.44.83-3.95.83-.72,0-1.43-.09-2.16-.27-.73-.18-1.39-.45-2-.8-.61-.37-1.16-.81-1.64-1.36-.47-.53-.85-1.17-1.1-1.89h-.08v11.11h-2.43v-27.24h2.24Z" />
  <path class="cls-5" d="m380.19,380.2c-.15.28-.45.49-.88.61-.44.13-.82.23-1.16.27-1.03.18-2.09.35-3.18.49-1.1.14-2.09.35-3,.63-.9.28-1.64.69-2.22,1.21-.58.53-.86,1.28-.86,2.26,0,.61.11,1.16.36,1.64.24.49.57.9.99,1.24.4.35.88.61,1.42.79.54.18,1.09.27,1.66.27.92,0,1.82-.14,2.66-.42.86-.28,1.59-.69,2.22-1.23.62-.53,1.13-1.19,1.51-1.97.37-.77.56-1.65.56-2.62v-3.16h-.08Zm-12.15-5.94c.41-.85.97-1.54,1.68-2.08.71-.54,1.54-.94,2.49-1.2.95-.26,2.01-.39,3.17-.39.88,0,1.75.09,2.62.26.87.16,1.66.48,2.35.94.7.46,1.26,1.11,1.7,1.95.44.84.65,1.92.65,3.25v10.58c0,.98.47,1.46,1.42,1.46.29,0,.55-.05.77-.15v2.05c-.29.06-.54.09-.75.12-.22.02-.49.04-.83.04-.62,0-1.11-.08-1.49-.26-.37-.17-.66-.4-.86-.71-.21-.3-.34-.68-.41-1.1-.06-.42-.1-.89-.1-1.41h-.07c-.44.65-.88,1.22-1.33,1.72-.45.5-.96.92-1.51,1.25-.56.34-1.18.59-1.89.77-.71.17-1.55.27-2.53.27s-1.8-.1-2.6-.33c-.82-.22-1.53-.57-2.13-1.04-.6-.47-1.08-1.08-1.42-1.81-.35-.73-.52-1.6-.52-2.61,0-1.38.31-2.47.92-3.25.62-.79,1.43-1.38,2.45-1.79,1.01-.41,2.16-.7,3.43-.87,1.27-.17,2.57-.32,3.88-.48.51-.06.96-.12,1.35-.2.38-.07.7-.21.96-.4.26-.19.46-.46.6-.79.13-.34.21-.77.21-1.31,0-.83-.13-1.5-.4-2.02-.27-.53-.64-.95-1.12-1.25-.48-.32-1.03-.53-1.67-.65-.62-.12-1.3-.17-2.02-.17-1.55,0-2.8.37-3.78,1.1-.98.73-1.49,1.91-1.54,3.53h-2.43c.08-1.16.32-2.16.73-3.01" />
  <path class="cls-5" d="m390.86,371.17v3.44h.07c.46-1.21,1.29-2.18,2.47-2.91,1.19-.74,2.48-1.11,3.9-1.11s2.55.18,3.49.54c.94.37,1.69.87,2.26,1.53.57.66.97,1.45,1.2,2.4.23.96.34,2.02.34,3.2v12.82h-2.43v-12.42c0-.85-.08-1.65-.22-2.38-.16-.73-.43-1.37-.82-1.91-.39-.54-.91-.96-1.57-1.27-.65-.31-1.48-.46-2.45-.46s-1.84.17-2.6.51c-.75.35-1.4.83-1.93,1.43-.52.61-.93,1.33-1.24,2.16-.29.84-.45,1.74-.47,2.72v11.62h-2.43v-19.91h2.43Z" />
  <path class="cls-5" d="m409.98,371.17l6.56,16.98,6.14-16.98h2.43l-8.65,22.92c-.35.85-.68,1.55-.99,2.11-.3.55-.65.98-1.03,1.31-.37.32-.81.55-1.31.7-.5.14-1.14.21-1.91.21-.49-.03-.87-.05-1.14-.06-.27-.02-.5-.06-.72-.13v-2.05c.28.05.56.1.83.14.27.04.55.06.83.06.54,0,.98-.08,1.33-.24.34-.15.65-.36.91-.63.25-.27.47-.59.65-.98.18-.39.38-.81.59-1.27l.84-2.24-7.94-19.84h2.58Z" />
  <path class="cls-3" d="m252.98,397.91h.86c.27,0,.77,0,.77-.6s-.48-.62-.77-.62h-.86v1.22Zm-.54-1.69h1.4c.29,0,1.34,0,1.34.99,0,.12,0,.74-.74.95.4.1.54.27.6.76.06.49.1.85.23,1.24h-.56c-.08-.25-.11-.41-.2-1.03-.06-.6-.21-.76-.85-.76h-.68v1.79h-.54v-3.94Zm-1.89,2c0,1.82,1.47,3.26,3.23,3.26s3.23-1.46,3.23-3.26-1.41-3.23-3.23-3.23-3.23,1.46-3.23,3.23m6.91,0c0,2.06-1.67,3.69-3.67,3.69s-3.67-1.63-3.67-3.69,1.71-3.67,3.67-3.67,3.67,1.63,3.67,3.67" />
  <path class="cls-1" d="m181.12,370.56c-6.54,0-8.32,2.4-8.32,10.56s1.78,10.56,8.32,10.56,8.33-2.4,8.33-10.56-1.78-10.56-8.33-10.56Zm1.46,15.33c0,1-.46,1.67-1.46,1.67s-1.45-.67-1.45-1.67v-9.53c0-1,.45-1.67,1.45-1.67s1.46.67,1.46,1.67v9.53Z" />
  <path class="cls-1" d="m237.65,389.2v-4.49c0-2.45-2.08-3.46-3.48-3.62v-.06c2.21-.25,3.56-1.84,3.56-4.34,0-3.9-1.9-5.52-5.82-5.52h-10.48v19.89h6.77v-8.2h.95c1.26,0,1.73.67,1.73,2.37v4.38c0,.88.38,1.45.98,1.45h6.7l.02-.06c-.45-.17-.93-.72-.93-1.81Zm-8.37-10.17h-1.07v-4.01h.92c1.03,0,1.83.45,1.83,1.87,0,1.14-.45,2.14-1.68,2.14Z" />
  <path class="cls-1" d="m171.8,384.42v-6.58c0-4.54-1.94-6.66-6.6-6.66h-9.56l-.02.03v19.86h9.58c4.66,0,6.6-2.11,6.6-6.65Zm-6.77.36c0,1.53-.43,2.05-1.66,2.05h-1.08v-11.42h1.08c1.23,0,1.66.53,1.66,2.06v7.3Z" />
  <polygon class="cls-1" points="202.21 391.07 206.73 371.18 199.58 371.18 197.83 384.77 197.78 384.77 196.09 371.18 188.97 371.18 193.36 391.07 202.21 391.07" />
  <polygon class="cls-1" points="220.23 375.91 220.23 371.18 207.27 371.18 207.27 391.07 220.23 391.07 220.23 386.33 214.04 386.33 214.04 383.1 219.66 383.1 219.66 378.87 214.04 378.87 214.04 375.91 220.23 375.91" />
  <path class="cls-3" d="m181.12,374.69c-1,0-1.45.67-1.45,1.67v9.53c0,1,.45,1.67,1.45,1.67s1.46-.67,1.46-1.67v-9.53c0-1-.46-1.67-1.46-1.67Z" />
  <path class="cls-3" d="m163.37,375.41h-1.08v11.42h1.08c1.23,0,1.66-.53,1.66-2.05v-7.3c0-1.53-.43-2.06-1.66-2.06Z" />
  <path class="cls-3" d="m235.58,360.84h-103.42v14.14h13.02v12.69h-13.02v14.24h103.64s17.7.07,17.7-21.37c0-19.67-17.93-19.7-17.93-19.7Zm-79.96,30.23v-19.86l.02-.03h9.56c4.66,0,6.6,2.12,6.6,6.66v6.58c0,4.54-1.94,6.65-6.6,6.65h-9.58Zm33.83-9.95c0,8.16-1.78,10.56-8.33,10.56s-8.32-2.4-8.32-10.56,1.78-10.56,8.32-10.56,8.33,2.4,8.33,10.56Zm-.48-9.95h7.12l1.68,13.6h.05l1.75-13.6h7.15l-4.52,19.89h-8.85l-4.39-19.89Zm30.68,7.69v4.24h-5.61v3.23h6.19v4.74h-12.96v-19.89h12.96v4.73h-6.19v2.96h5.61Zm18.9,12.2h-6.7c-.6,0-.98-.57-.98-1.45v-4.38c0-1.7-.47-2.37-1.73-2.37h-.95v8.2h-6.77v-19.89h10.48c3.92,0,5.82,1.62,5.82,5.52,0,2.51-1.35,4.1-3.56,4.34v.06c1.41.16,3.48,1.17,3.48,3.62v4.49c0,1.09.48,1.64.93,1.81l-.02.06Z" />
  <path class="cls-3" d="m229.13,375.02h-.92v4.01h1.07c1.23,0,1.68-1,1.68-2.14,0-1.43-.81-1.87-1.83-1.87Z" />
</svg>